<svg xmlns="http://www.w3.org/2000/svg" width="20" height="20" viewBox="0 0 20 20">
  <g id="Active_Routes" data-name="Active Routes" transform="translate(-5339 -13327.542)">
    <path id="Path_23885" data-name="Path 23885" d="M61.209,59.321a1.036,1.036,0,1,0,1.036,1.036A1.037,1.037,0,0,0,61.209,59.321Z" transform="translate(5280.659 13270.026)" fill="#fff"/>
    <path id="Path_23886" data-name="Path 23886" d="M2.868,0A2.869,2.869,0,0,0,.1,3.634a2.839,2.839,0,0,0,.1.287l.087.2L2.868,8.888,5.452,4.112l.078-.178A2.869,2.869,0,0,0,2.868,0Zm0,4.344a1.5,1.5,0,1,1,1.5-1.5A1.5,1.5,0,0,1,2.868,4.344Z" transform="translate(5339 13327.542)" fill="#fff"/>
    <path id="Path_23887" data-name="Path 23887" d="M362.809,257.352a1.036,1.036,0,1,0,1.036,1.036A1.037,1.037,0,0,0,362.809,257.352Z" transform="translate(4993.324 13083.129)" fill="#fff"/>
    <path id="Path_23888" data-name="Path 23888" d="M304.466,198.033a2.869,2.869,0,0,0-2.668,3.921l.087.2,2.581,4.769,2.584-4.776.078-.178a2.869,2.869,0,0,0-2.663-3.934Zm0,4.343a1.5,1.5,0,1,1,1.5-1.5A1.5,1.5,0,0,1,304.465,202.376Z" transform="translate(5051.667 13140.621)" fill="#fff"/>
    <path id="Path_23889" data-name="Path 23889" d="M188.7,157.942l-.025-.755q.361-.011.752-.054l.081.75Q189.088,157.929,188.7,157.942Zm-.817-.01a7.042,7.042,0,0,1-.819-.094l.129-.743a6.678,6.678,0,0,0,.734.084Zm-1.633-.3a4.385,4.385,0,0,1-.779-.348l.373-.654a3.707,3.707,0,0,0,.647.287Zm-1.482-.876a3.02,3.02,0,0,1-.535-.712l.661-.36a2.294,2.294,0,0,0,.4.535Zm-.837-1.551a3.468,3.468,0,0,1-.07-.7l0-.17.752.032,0,.138a2.757,2.757,0,0,0,.054.549Zm.787-1.545-.732-.174a5.617,5.617,0,0,1,.256-.8l.7.281A4.957,4.957,0,0,0,184.718,153.663Zm.538-1.363-.661-.358q.145-.272.322-.548l.086-.14.646.386-.1.158C185.444,151.968,185.345,152.135,185.256,152.3Zm.761-1.43-.707-.259a2.622,2.622,0,0,0,.153-.666l.749.066A3.387,3.387,0,0,1,186.017,150.87Zm-.6-1.587a2.32,2.32,0,0,0-.248-.623l.651-.377a3.035,3.035,0,0,1,.331.829Zm-.667-1.181a4.512,4.512,0,0,0-.535-.484l.46-.6a5.2,5.2,0,0,1,.626.567Zm-1.145-.9c-.228-.136-.453-.254-.66-.352l.322-.682c.228.108.474.236.724.385Z" transform="translate(5162.586 13185.813)" fill="#fff"/>
  </g>
</svg>
