<?xml version="1.0" standalone="no"?>
<!DOCTYPE svg PUBLIC "-//W3C//DTD SVG 20010904//EN"
 "http://www.w3.org/TR/2001/REC-SVG-20010904/DTD/svg10.dtd">
<svg version="1.0" xmlns="http://www.w3.org/2000/svg"
 width="301.000000pt" height="395.000000pt" viewBox="0 0 301.000000 395.000000"
 preserveAspectRatio="xMidYMid meet">

<g transform="translate(0.000000,395.000000) scale(0.100000,-0.100000)"
fill="#000000" stroke="none">
<path d="M1326 3939 c-210 -24 -451 -110 -626 -223 -650 -421 -880 -1235 -545
-1931 24 -50 63 -120 87 -156 44 -66 1204 -1556 1242 -1597 l22 -22 189 242
c104 134 372 477 595 763 223 286 429 554 457 595 104 155 181 337 225 531 20
91 23 129 22 314 0 194 -2 219 -28 330 -94 406 -320 726 -666 942 -266 166
-651 250 -974 212z m359 -709 c153 -17 292 -68 346 -127 36 -38 71 -97 99
-165 l24 -58 92 0 c71 0 96 -4 108 -16 19 -18 19 -21 2 -101 -16 -77 -29 -93
-71 -93 l-33 0 30 -55 c55 -102 48 -235 -17 -320 -32 -41 -33 -47 -37 -145 -4
-130 -4 -130 -147 -130 -127 0 -141 8 -141 82 l0 48 -435 0 -435 0 0 -43 c0
-23 -7 -53 -16 -65 -14 -21 -23 -22 -129 -22 -144 0 -145 1 -145 141 0 85 -2
98 -21 115 -79 71 -95 244 -33 352 l25 42 -28 0 c-43 0 -54 13 -69 76 -29 123
-20 134 109 134 l85 0 41 86 c23 48 55 104 72 125 89 113 407 174 724 139z"/>
<path d="M1335 3098 c-153 -17 -251 -56 -288 -116 -20 -33 -77 -156 -77 -168
0 -2 241 -4 535 -4 l534 0 -18 43 c-69 160 -86 178 -191 212 -129 40 -318 53
-495 33z"/>
<path d="M976 2580 c-72 -22 -108 -99 -80 -169 30 -76 118 -103 185 -58 40 27
59 60 59 105 0 85 -82 147 -164 122z"/>
<path d="M1953 2579 c-49 -14 -83 -62 -83 -115 0 -60 21 -97 66 -119 84 -40
184 17 184 105 0 95 -78 155 -167 129z"/>
</g>
</svg>
