<svg xmlns="http://www.w3.org/2000/svg" width="24" height="24" viewBox="0 0 24 24">
  <g id="Group_24711" data-name="Group 24711" transform="translate(10080 -5076)">
    <g id="Ellipse_2916" data-name="Ellipse 2916" transform="translate(-10080 5076)" fill="#d93939" stroke="#ffff0a" stroke-width="0.5">
      <circle cx="12" cy="12" r="12" stroke="none"/>
      <circle cx="12" cy="12" r="11.75" fill="none"/>
    </g>
    <path id="Icon_awesome-truck" data-name="Icon awesome-truck" d="M12.573,7.093h-.322V4.914a.967.967,0,0,0-.284-.683L9.954,2.218a.967.967,0,0,0-.683-.284H8.382V.967A.967.967,0,0,0,7.415,0H.967A.967.967,0,0,0,0,.967V7.415a.967.967,0,0,0,.967.967H1.29a1.934,1.934,0,0,0,3.869,0H7.737a1.934,1.934,0,0,0,3.869,0h.967A.323.323,0,0,0,12.9,8.06V7.415a.323.323,0,0,0-.327-.322ZM3.224,9.349a.967.967,0,1,1,.967-.967A.967.967,0,0,1,3.224,9.349Zm6.448,0a.967.967,0,1,1,.967-.967A.967.967,0,0,1,9.672,9.349Zm1.612-4.191h-2.9V2.9h.889l2.013,2.013Z" transform="translate(-10074 5083)" fill="#ff0"/>
  </g>
</svg>
